<svg width="56" height="55" viewBox="0 0 56 55" fill="none" xmlns="http://www.w3.org/2000/svg">
<path d="M5 2.5H2.5V5V50V52.5H5H50.4219H52.9219V50V5V2.5H50.4219H5Z" stroke="#FC6238" stroke-width="5"/>
<path d="M43.8704 31.723C42.8329 35.4616 40.6988 38.7485 37.7805 41.1026C34.8621 43.4568 31.3128 44.7546 27.6519 44.8061C23.991 44.8576 20.4107 43.6602 17.435 41.3891C14.4592 39.1179 12.2443 35.8922 11.1143 32.1841L16.2424 30.4123C17.0172 32.9546 18.5357 35.1661 20.5759 36.7232C22.6161 38.2803 25.0707 39.1013 27.5806 39.0659C30.0906 39.0306 32.524 38.1408 34.5248 36.5268C36.5256 34.9128 37.9887 32.6594 38.7 30.0962L43.8704 31.723Z" fill="#FC6238"/>
<rect x="25.0903" y="10.625" width="5.24099" height="24.2308" fill="#FC6238"/>
<path d="M30.1129 27.5C31.5181 27.5 32.9096 27.3265 34.2078 26.9895C35.506 26.6524 36.6856 26.1584 37.6792 25.5357C38.6728 24.9129 39.461 24.1735 39.9988 23.3598C40.5365 22.5461 40.8133 21.674 40.8133 20.7933C40.8133 19.9125 40.5365 19.0404 39.9988 18.2267C39.461 17.413 38.6728 16.6737 37.6792 16.0509C36.6856 15.4281 35.506 14.9341 34.2078 14.5971C32.9096 14.26 31.5181 14.0865 30.1129 14.0865V17.4328C30.817 17.4328 31.5142 17.5197 32.1647 17.6886C32.8152 17.8574 33.4063 18.105 33.9042 18.417C34.402 18.7291 34.797 19.0995 35.0664 19.5073C35.3358 19.915 35.4745 20.352 35.4745 20.7933C35.4745 21.2346 35.3358 21.6716 35.0664 22.0793C34.797 22.487 34.402 22.8575 33.9042 23.1695C33.4063 23.4816 32.8152 23.7291 32.1647 23.898C31.5142 24.0669 30.817 24.1538 30.1129 24.1538V27.5Z" fill="#FC6238"/>
<path d="M13.2979 18.9575C13.3103 20.1048 13.5319 21.2394 13.95 22.2966C14.368 23.3537 14.9743 24.3127 15.7343 25.1188C16.4943 25.9249 17.3931 26.5623 18.3793 26.9946C19.3655 27.4269 20.4199 27.6456 21.4822 27.6383C22.5445 27.631 23.5939 27.3978 24.5706 26.9519C25.5473 26.5061 26.4321 25.8564 27.1744 25.04C27.9168 24.2236 28.5021 23.2563 28.8971 22.1936C29.2921 21.1308 29.489 19.9933 29.4766 18.846L25.0924 18.8762C25.0982 19.4017 25.008 19.9227 24.827 20.4095C24.6461 20.8963 24.378 21.3393 24.038 21.7133C23.6979 22.0872 23.2927 22.3848 22.8453 22.589C22.398 22.7932 21.9173 22.9 21.4307 22.9034C20.9441 22.9068 20.4612 22.8066 20.0095 22.6086C19.5577 22.4106 19.1461 22.1186 18.798 21.7494C18.4499 21.3802 18.1722 20.9409 17.9807 20.4567C17.7892 19.9725 17.6877 19.4528 17.682 18.9272L13.2979 18.9575Z" fill="#FC6238"/>
</svg>
